<svg id="O" xmlns="http://www.w3.org/2000/svg" viewBox="0 0 184.34 184.34"><defs><style>.cls-1{fill:#00aeef;}.cls-2{fill:#231f20;}</style></defs><path class="cls-1" d="M100,185.17A85.17,85.17,0,1,1,185.18,100,85.26,85.26,0,0,1,100,185.17ZM100,40.9A59.1,59.1,0,1,0,159.11,100,59.17,59.17,0,0,0,100,40.9Z" transform="translate(-7.83 -7.83)"/><path class="cls-2" d="M100,21.83A78.18,78.18,0,1,1,21.83,100,78.26,78.26,0,0,1,100,21.83m0,144.27A66.1,66.1,0,1,0,33.9,100,66.18,66.18,0,0,0,100,166.1M100,7.83A92.18,92.18,0,1,0,192.18,100,92.28,92.28,0,0,0,100,7.83Zm0,144.27A52.1,52.1,0,1,1,152.11,100,52.16,52.16,0,0,1,100,152.1Z" transform="translate(-7.83 -7.83)"/></svg>