<svg xmlns="http://www.w3.org/2000/svg" viewBox="0 0 175.31 175.31"><defs><style>.cls-1{opacity:0.15;}.cls-2{fill:#fff;}.cls-3{fill:#231f20;}.cls-4{fill:#fbb040;}</style></defs><g id="Layer_1" data-name="Layer 1"><g class="cls-1"><path class="cls-2" d="M100,181.67A81.67,81.67,0,1,1,181.68,100,81.76,81.76,0,0,1,100,181.67ZM100,37.4A62.6,62.6,0,1,0,162.61,100,62.67,62.67,0,0,0,100,37.4Z" transform="translate(-12.34 -12.34)"/><path class="cls-3" d="M100,21.83A78.18,78.18,0,1,1,21.83,100,78.26,78.26,0,0,1,100,21.83m0,144.27A66.1,66.1,0,1,0,33.9,100,66.18,66.18,0,0,0,100,166.1m0-151.27A85.18,85.18,0,1,0,185.18,100,85.27,85.27,0,0,0,100,14.83Zm0,144.27A59.1,59.1,0,1,1,159.11,100,59.17,59.17,0,0,1,100,159.1Z" transform="translate(-12.34 -12.34)"/></g></g><g id="Layer_2" data-name="Layer 2"><polygon class="cls-3" points="106.63 87.66 175.31 156.35 170.58 161.09 161.09 170.58 156.35 175.31 87.66 106.63 18.98 175.31 14.23 170.58 4.75 161.09 0.01 156.35 4.75 151.61 68.7 87.66 0 18.96 4.75 14.23 14.23 4.75 18.96 0 23.71 4.75 87.66 68.7 151.61 4.75 156.35 0 175.31 18.96 170.58 23.71 106.63 87.66"/><polygon class="cls-4" points="97.14 87.66 165.83 156.35 156.35 165.83 87.66 97.14 18.97 165.83 9.49 156.35 78.18 87.66 9.49 18.97 18.97 9.49 87.66 78.18 156.35 9.48 165.83 18.97 97.14 87.66"/></g></svg>