<svg xmlns="http://www.w3.org/2000/svg" viewBox="0 0 85.04 113.51"><defs><style>.cls-1{fill:#384c50;}</style></defs><g id="Layer_2" data-name="Layer 2"><g id="trace-02"><path class="cls-1" d="M66.14,0H37.79a1,1,0,0,0-1,1.05L46.5,31.92A25.2,25.2,0,0,1,47.06,40c-.46,4.57-1.76,4.56-4,4.53-3.44,0-5.28,3.73-5.29,9.5V73c0,6.47,2.26,9.32,5.3,9.37,2.68,0,3.76.08,4.06,5.32.13,2.28.06-4.89-.15-2.62l-4,27.42A1,1,0,0,0,44,113.51H65.73c13.36,0,19.3-6.78,19.31-19V18.9C84.76,6.65,78.55,0,66.14,0Z"/><path class="cls-1" d="M1.05,113.51H18.9A1,1,0,0,0,20,112.46l8.4-93.56a1,1,0,0,0-1.05-1L1.05,9.45A1,1,0,0,0,0,10.5v102A1,1,0,0,0,1.05,113.51Z"/></g></g></svg>