<?xml version="1.0" encoding="utf-8"?>
<!-- Generator: Adobe Illustrator 27.0.1, SVG Export Plug-In . SVG Version: 6.00 Build 0)  -->
<svg version="1.1" id="Layer_1" xmlns="http://www.w3.org/2000/svg" xmlns:xlink="http://www.w3.org/1999/xlink" x="0px" y="0px"
	 viewBox="0 0 768 768" style="enable-background:new 0 0 768 768;" xml:space="preserve">
<style type="text/css">
	.st0{fill:#D23438;}
	.st1{fill:#0572BA;}
</style>
<path class="st0" d="M758,471.1c-87.1,0-157.6-70.6-157.6-157.6c0-0.1,0-0.3,0-0.4v-2.5h-54.8c-17.8-72.8-83.3-136.9-161.5-136.9
	s-143.7,63.6-161.7,136.9h-54.8v2.5c0.2,87.1-70.2,157.8-157.2,158c-0.1,0-0.3,0-0.4,0H0v297.3h768V470.9h-10"/>
<path class="st1" d="M3.1,419.6h6.8c58.8,0,106.4-47.6,106.4-106.4c0-0.1,0-0.1,0-0.2v-53.2h69.4c33.4-80.6,110.9-134.2,198.1-136.9
	c87.2,2.7,164.8,56.3,198.1,136.9h69.4V313c0.1,58.7,47.7,106.3,106.4,106.4h10V0.1H0v419.5H3.1z"/>
</svg>
