<?xml version="1.0" encoding="utf-8"?>
<!-- Generator: Adobe Illustrator 27.0.1, SVG Export Plug-In . SVG Version: 6.00 Build 0)  -->
<svg version="1.1" id="Layer_1" xmlns="http://www.w3.org/2000/svg" xmlns:xlink="http://www.w3.org/1999/xlink" x="0px" y="0px"
	 viewBox="0 0 200 200" style="enable-background:new 0 0 200 200;" xml:space="preserve">
<style type="text/css">
	.st0{fill:#9E1F37;}
	.st1{fill:#FFFFFF;}
</style>
<rect x="0.4" y="31.4" class="st0" width="200" height="138.6"/>
<path class="st1" d="M91.7,29.6v109.9h25.2V96.9c0,0,1.3-13.9,13.6-13.9c12.3,0,13.4,10.3,13.4,10.3v46.1h25.3V90.4
	c0,0,0.3-30.2-31.1-30.2c-14,0-21.5,9.4-21.5,9.4v-40H91.7z"/>
<path class="st1" d="M56.3,69.4c12.3-11.8,22.8-8.7,22.8-8.7v23.1h-10c-7.2,0-10.5,7.6-11.9,11.9c-0.5,1.6-0.7,3.3-0.7,5v38.7H31.2
	V62.8h25.2V69.4z"/>
<g>
</g>
<g>
</g>
<g>
</g>
<g>
</g>
<g>
</g>
<g>
</g>
</svg>
