<?xml version="1.0" encoding="utf-8"?>
<!-- Generator: Adobe Illustrator 27.0.1, SVG Export Plug-In . SVG Version: 6.00 Build 0)  -->
<svg version="1.1" id="Layer_1" xmlns="http://www.w3.org/2000/svg" xmlns:xlink="http://www.w3.org/1999/xlink" x="0px" y="0px"
	 viewBox="0 0 200 200" style="enable-background:new 0 0 200 200;" xml:space="preserve">
<style type="text/css">
	.st0{fill:#1E1E1E;}
</style>
<g id="Layer_3">
	<path class="st0" d="M37.9,149.9v-13.4c0,0-20.9-10.9-20.9-37.1s20.9-36.8,20.9-36.8V38.6H63c0,0,11.7-21.5,35.6-21.5l-0.7,12.7
		c0,0-2.5,1.5-2.8,3.8h-1.8v8.2h0.4v3.5c0,0-0.6,0.4-0.6,2c0,0-34.6,3.8-41,42.8c0,0-6.1-1-6.1,6.1h-6.1v3.6l1.2,1.2v3.8h-1.2v3.3
		l1.1,1.2v1.3h-1.1v3.5l1.2,1.2v4.5h-1.3v3.5l1.3,1.3v25.4L37.9,149.9L37.9,149.9z"/>
</g>
<g id="Layer_4">
	<path class="st0" d="M162.9,149.9v-13.4c0,0,20.9-10.9,20.9-37.1s-20.9-36.8-20.9-36.8V38.6h-25.1c0,0-11.7-21.5-35.6-21.5
		l0.7,12.7c0,0,2.5,1.5,2.8,3.8h1.8v8.2h-0.4v3.5c0,0,0.6,0.4,0.6,2c0,0,34.6,3.8,41,42.8c0,0,6.1-1,6.1,6.1h6.1v3.6l-1.2,1.2v3.8
		h1.2v3.3l-1.1,1.2v1.3h1.1v3.5l-1.2,1.2v4.5h1.3v3.5l-1.3,1.3v25.4L162.9,149.9L162.9,149.9z"/>
</g>
<g id="Layer_5">
	<path class="st0" d="M37.8,151.7h125v9.6h-24.9c0,0-11.2,21.6-37.4,21.6s-37.7-21.5-37.7-21.5h-25V151.7z"/>
</g>
<g id="Layer_6">
	<path class="st0" d="M100.6,17.1l-1.3,14.5c0,0-2.6,1-3,3.7h-1.8v1.3l0.8,0.8v0.9h-0.8v1.4l0.7,0.7v6.8h-0.7v1.6
		c0,0-18.9,5.6-24.2,47.4H73c0,0,1.2-6.9,8.6-6.9c7.4,0,6.3,0,6.3,0s4.5,0.1,5.8,6.9h10.5v-2.3c0,0-3.6,0.4-3.6-1.3v-3.1h1.7
		l1.1-1.1h-5.6v-0.9h2.4v-1.7h2l1-1h-3v-5l1.8,1.8v-31c0,0,21.3-0.1,28.3,44.3h-3.6l0.8,1.5h12.3v-2.5h-2.6c0,0-1,0.1-1-1.1v-3.2
		h1.6l1-1h-5.1v-1h2.5v-1.4h1.6l1.2-1.2h-2.9v-4.3l-2.9,4.1l1.2,1.5v0.6h-2v3h1v4.2h-0.7c0,0-3.1-28.8-21-41.2
		c0,0,27.5,5.3,33.3,38.1h2.2c0,0-2.7-35.9-41.3-41.7v-1.9h-0.4V40h0.5v-1.6h-0.7v-1.5h0.7v-1.5h-1.6c0,0,0-2.7-2.9-3.7L100.6,17.1
		L100.6,17.1z"/>
</g>
<g id="Layer_7">
	<rect x="42.7" y="129.2" class="st0" width="15.1" height="20.7"/>
	<rect x="60.4" y="129.2" class="st0" width="36" height="20.7"/>
	<rect x="98.6" y="129.2" class="st0" width="3.6" height="20.7"/>
	<rect x="141.2" y="129.2" class="st0" width="2.8" height="20.7"/>
	<path class="st0" d="M90.8,98v23.3h18.8V98H90.8z M100.4,100.1h6.6v4.1h-6.6V100.1z M93.6,104.8l0.6-0.4l-0.6,0.6h15v1.4h-1.6v3.5
		h-6.5v-3.4h-6.3l-0.8-1.3C93.3,105.1,93.6,104.8,93.6,104.8z M108.6,112.3l-1.7,0v8.3h-6.5v-8.3h-6.1l-1-1.6h15.2V112.3z"/>
	<path class="st0" d="M53.9,90c0,0,6.8-0.6,7.4,1.4V94h-0.9v2.2h7.8c0,0,2-13.9,2.7-17.5c0-0.1,0.1-0.2,0.1-0.3
		c1-4.2,5-16.9,18.3-28.5C88.4,50.1,60.2,55.5,53.9,90z M64.6,80.5v4.3h-3.4L64.6,80.5z M60.9,88.2c0,0-0.4-0.9,0.3-0.9
		c0.7,0,1.2,0,1.2,0v-1h2.2v0.8l0.8,0.1v1.3l-3,0v-0.2L60.9,88.2L60.9,88.2z M62.3,94v-4.6l0,0h2.2v2.7l-2,1.9
		C62.6,94.1,62.3,94,62.3,94z"/>
	<line class="st0" x1="70.5" y1="78.7" x2="70.7" y2="79.8"/>
	<rect x="56.6" y="98" class="st0" width="1.3" height="23.3"/>
	<path class="st0" d="M72.8,98H60.4v23.3h12.5v-9h-3.6v8.3h-3.5v-8.3h-2.2l-1-1.6h10.4v-4.5h-3.6v3.6h-3.6v-3.3h-2.2l-1.1-1.8h10.4
		L72.8,98L72.8,98z M69.2,104h-3.5V100l0.1,0h3.5V104z"/>
	<path class="st0" d="M47.3,120.1v-24c0,0,1-4.5,3.3-4.5s3.3,4.5,3.3,4.5v22.6C53.9,118.7,49,118.5,47.3,120.1z"/>
	<polygon class="st0" points="45.8,123.9 45.8,122 41.7,122 41.7,123 42.7,123.9 42.7,126.9 154,126.9 154,149.9 158.1,149.9 
		158.1,124.1 158.9,123 158.9,122 154.9,122 154.9,123.8 	"/>
	<path class="st0" d="M88.2,121.3V96.9c0,0-1.1-5.2-6.3-5.2s-6.2,5.6-6.2,5.6v23.2l3.5-2.2H87l-0.1,2.9
		C86.9,121.3,88.2,121.3,88.2,121.3z"/>
	<path class="st0" d="M125,120.6V96.8c0,0-0.9-5.1-6.5-5.1s-6.2,5.4-6.2,5.4v24.2h1.2v-2.7l8.1,0.1L125,120.6L125,120.6z"/>
	<path class="st0" d="M153.1,120.6l-2.8-2H146V96.2c0,0,1-4.5,3.6-4.5s3.6,3.8,3.6,3.8L153.1,120.6L153.1,120.6z"/>
	<path class="st0" d="M130.1,98v2.1h1.8v5h11.3l-0.9,1.3h-1v3.2h-6.1v-3.1h-3.3v4.2H143l-0.9,1.5h-1v8.3H135v-8.3h-3v9.1H144V98
		H130.1L130.1,98z M134.9,104.2v-4.1h6.3v4.1H134.9z"/>
	<polygon class="st0" points="157.9,120.1 157.9,114.8 159.1,113.5 159.1,112.2 154.6,112.2 154.6,120.1 	"/>
	<polygon class="st0" points="157.9,110.7 157.9,108.8 159.1,107.6 159.1,106.4 154.6,106.4 154.6,110.7 	"/>
	<polygon class="st0" points="157.9,104.9 157.9,100.6 159.2,99.3 159.2,98 154.6,98 154.6,104.9 	"/>
	<polygon class="st0" points="42.8,105 42.8,100.4 41.6,99.3 41.6,98 46,98 46,105 	"/>
	<polygon class="st0" points="42.8,110.7 42.8,108.8 41.7,107.7 41.7,106.3 46,106.3 46,110.7 	"/>
	<polygon class="st0" points="41.7,112.3 45.8,112.3 45.8,120.1 42.7,120.1 42.7,114.5 41.8,113.6 	"/>
	<path class="st0" d="M34.1,36l0,1L34.1,36L34.1,36z"/>
	<path class="st0" d="M166.7,60.5V35h-26.2c-2-3.4-14.5-22.2-39.9-22.2S62.7,31.6,60.6,35H35.1v0h-1v2l0.1,23.3
		C31,62.5,13.1,75.2,13.1,99.8c0,24.6,17.8,37.2,21,39.3v26.3H61c2.3,3.1,16.7,21.4,40.6,21.4c23.8,0,36.3-18.4,38.4-21.7h26.8
		v-26.2c1.5-0.9,5.8-3.6,10.2-8.7c4.9-5.7,10.7-15.6,10.7-30.2C187.6,74.6,170,62.5,166.7,60.5z M165.3,137.5l-0.5,0.3v25.4h-26
		l-0.3,0.5c-0.1,0.2-12.1,21.2-37,21.2c-24.9,0-39.1-20.7-39.3-20.9l-0.3-0.5H36.1V138l-0.5-0.3c-0.2-0.1-20.5-12.1-20.5-37.9
		c0-25.8,20.4-37.9,20.6-38l0.5-0.3L36.1,37h25.7l0.3-0.5c0.1-0.2,12-21.7,38.5-21.7s38.3,21.5,38.4,21.7l0.3,0.5h25.4v24.6l0.5,0.3
		c0.2,0.1,20.5,11.4,20.5,38.1C185.6,126.7,165.5,137.4,165.3,137.5z"/>
</g>
</svg>
