<svg xmlns="http://www.w3.org/2000/svg" viewBox="0 0 168.58 168.58"><defs><style>.cls-1{fill:#92c3cf;stroke:#384c50;stroke-miterlimit:10;stroke-width:9px;}.cls-2{fill:#384c50;}</style></defs><g id="Layer_2" data-name="Layer 2"><g id="circle"><circle class="cls-1" cx="84.29" cy="84.29" r="79.79"/></g><g id="trace-02"><path class="cls-2" d="M110,32.55H84a1,1,0,0,0-1,1L92,61.8a23,23,0,0,1,.51,7.44c-.42,4.2-1.61,4.19-3.64,4.16-3.15,0-4.85,3.42-4.85,8.71V99.43c0,5.93,2.07,8.55,4.86,8.59,2.45,0,3.44.07,3.72,4.88.12,2.08,0-4.49-.14-2.41l-3.69,25.14a1,1,0,0,0,1,1h19.89c12.26,0,17.7-6.22,17.7-17.44V49.87C127.09,38.64,121.4,32.52,110,32.55Z"/><path class="cls-2" d="M50.36,136.59H66.72a1,1,0,0,0,1-1l7.7-85.76a1,1,0,0,0-1-1l-24.06-7.7a1,1,0,0,0-1,1v93.46A1,1,0,0,0,50.36,136.59Z"/></g></g></svg>