<svg xmlns="http://www.w3.org/2000/svg" viewBox="0 0 145.3 138.23"><defs><style>.cls-1{fill:#384c50;}</style></defs><g id="Layer_2" data-name="Layer 2"><g id="trace-02"><path class="cls-1" d="M20.68,114v23.71h-9v-10H9v10H0V114H9v8.48h2.69V114Z"/><path class="cls-1" d="M44.42,114h15v4.75h-6v4.49H59v4.51H53.42V133H60v4.75H44.42Z"/><path class="cls-1" d="M101.8,121.21H93.44v-1.76a2.48,2.48,0,0,0-.32-1.57,1.44,1.44,0,0,0-1.07-.33,1.6,1.6,0,0,0-1.23.45,2,2,0,0,0-.41,1.38,2.8,2.8,0,0,0,.47,1.78,6.4,6.4,0,0,0,2.54,1.45q6,2.44,7.56,4t1.56,5a6.44,6.44,0,0,1-.86,3.74,6.54,6.54,0,0,1-3.34,2,18.65,18.65,0,0,1-5.77.81,18.09,18.09,0,0,1-6.17-.93,5.91,5.91,0,0,1-3.34-2.39,8.69,8.69,0,0,1-.79-4.11v-1.56h8.35v2.89a2.77,2.77,0,0,0,.35,1.71,1.7,1.7,0,0,0,1.25.38,1.73,1.73,0,0,0,1.34-.48A2.08,2.08,0,0,0,94,132.3q0-2.09-.84-2.73a28.26,28.26,0,0,0-4.2-2.16,43.33,43.33,0,0,1-4.45-2.21,5.39,5.39,0,0,1-1.8-1.9,6,6,0,0,1-.72-3.1,6.39,6.39,0,0,1,1-4,6.7,6.7,0,0,1,3.28-2,18.58,18.58,0,0,1,5.47-.71,20,20,0,0,1,6,.78,6.14,6.14,0,0,1,3.27,2,7.51,7.51,0,0,1,.8,4Z"/><path class="cls-1" d="M144.55,121.21H136.2v-1.76a2.55,2.55,0,0,0-.32-1.57,1.44,1.44,0,0,0-1.07-.33,1.6,1.6,0,0,0-1.23.45,2,2,0,0,0-.41,1.38,2.87,2.87,0,0,0,.46,1.78,6.55,6.55,0,0,0,2.55,1.45q6,2.44,7.56,4t1.56,5a4.95,4.95,0,0,1-4.21,5.75,18.56,18.56,0,0,1-5.77.81,18.07,18.07,0,0,1-6.16-.93,5.91,5.91,0,0,1-3.34-2.39,8.68,8.68,0,0,1-.8-4.11v-1.56h8.36v2.89a2.77,2.77,0,0,0,.35,1.71,1.68,1.68,0,0,0,1.25.38,1.73,1.73,0,0,0,1.34-.48,2.08,2.08,0,0,0,.44-1.44q0-2.09-.84-2.73a28,28,0,0,0-4.21-2.16,42.82,42.82,0,0,1-4.44-2.21,5.51,5.51,0,0,1-1.81-1.9,6.13,6.13,0,0,1-.71-3.1,6.39,6.39,0,0,1,1-4,6.7,6.7,0,0,1,3.28-2,18.53,18.53,0,0,1,5.47-.71,19.92,19.92,0,0,1,6,.78,6.06,6.06,0,0,1,3.27,2,7.42,7.42,0,0,1,.8,4Z"/><g id="D"><path class="cls-1" d="M52.33,14V94.37H14V14H52.33m7-14H0V108.37H59.33a7,7,0,0,0,7-7V7a7,7,0,0,0-7-7Z"/></g><g id="T"><path class="cls-1" d="M139.3,6V7.26H118.14a6,6,0,0,0-6,6v89.11H110V13.26a6,6,0,0,0-6-6H85V6H139.3m6-6H79V13.26H104v95.11h14.1V13.26H145.3V0Z"/></g><rect class="cls-1" x="79.83" y="0.97" width="63.65" height="6.38"/></g></g></svg>