<svg xmlns="http://www.w3.org/2000/svg" viewBox="0 0 195.94 195.95"><defs><style>.cls-1{opacity:0.15;}.cls-2{fill:#fff;}.cls-3{fill:#231f20;}</style></defs><g id="Layer_2" data-name="Layer 2"><g class="cls-1"><polygon class="cls-2" points="9.9 166.66 78.59 97.98 9.9 29.28 29.28 9.9 97.97 78.59 166.66 9.9 186.04 29.28 117.36 97.97 186.04 166.66 166.66 186.04 97.97 117.36 29.29 186.05 9.9 166.66"/><path class="cls-3" d="M168.69,21.83l9.49,9.48L109.49,100l68.69,68.68-9.49,9.48L100,109.49,31.32,178.18l-9.48-9.49L90.52,100,21.83,31.31l9.48-9.48L100,90.52l68.68-68.69m0-19.8-9.9,9.9L100,70.72,41.21,11.93,31.31,2l-9.89,9.9-9.49,9.48L2,31.31l9.9,9.9L70.73,100,11.94,158.79,2,168.69l9.9,9.9,9.48,9.49,9.9,9.9,9.9-9.9L100,129.29l58.78,58.78,9.9,9.9,9.9-9.9,9.49-9.48,9.9-9.9-9.9-9.9L129.29,100l58.79-58.79,9.9-9.9-9.9-9.9-9.49-9.48L168.69,2Z" transform="translate(-2.03 -2.03)"/></g></g><g id="Layer_1" data-name="Layer 1"><g class="cls-1"><path class="cls-3" d="M100,21.83A78.18,78.18,0,1,1,21.83,100,78.26,78.26,0,0,1,100,21.83m0,144.27A66.1,66.1,0,1,0,33.9,100,66.18,66.18,0,0,0,100,166.1M100,7.83A92.18,92.18,0,1,0,192.18,100,92.28,92.28,0,0,0,100,7.83Zm0,144.27A52.1,52.1,0,1,1,152.11,100,52.16,52.16,0,0,1,100,152.1Z" transform="translate(-2.03 -2.03)"/></g></g></svg>